<svg xmlns="http://www.w3.org/2000/svg" version="1.1" xmlns:xlink="http://www.w3.org/1999/xlink" xmlns:svgjs="http://svgjs.dev/svgjs" width="100%" height="100%" viewBox="0 0 1000 600"><rect width="1000" height="600" x="0" y="0" fill="#00214d"/><g><circle r="166.66666666666666" cx="300.1309611002604" cy="322.35318532402067" fill="#fcedda" transform="matrix(0.9365799405430273,0,0,0.9365799405430273,0,-1.9095386074372271)"/><path d="M322.9172653326207 247.39466536203966L322.9172653326207 247.39466536203966Q326.089900176794 247.71192884645703 326.74708882308704 252.17627930575802L326.74708882308704 252.17627930575802Q320.99102274865834 286.7353374297886 315.73351357831405 327.86628201674966L315.73351357831405 327.86628201674966Q307.77926479042236 360.36312749206763 306.03431562612707 378.67376287843933L306.03431562612707 378.67376287843933L305.5357587220427 394.4689520669307Q304.10807304216473 397.641586911104 300.2782495516983 397.32432342668665L300.2782495516983 397.32432342668665Q294.70347689693665 396.84842820006065 290.73768334172007 364.8274779513687L290.73768334172007 364.8274779513687Q286.749228109045 342.34709391265505 277.34463196381705 273.9994746981787L277.34463196381705 273.9994746981787L273.5148084733507 254.87301892330532Q275.10112589543735 251.04319543283898 278.93094938590366 251.20182717504767L278.93094938590366 251.20182717504767Q284.0298268140393 251.70038407913202 285.6388059135844 271.1214416609643L285.6388059135844 271.1214416609643Q289.128704242175 288.66158001375106 298.37466864519433 357.0091992282273L298.37466864519433 357.0091992282273L298.8505638718203 357.4850944548533L299.3264590984463 357.4850944548533Q306.03431562612707 332.78386602521834 316.2320704823984 255.8248093765573L316.2320704823984 255.8248093765573Q317.0252291934417 246.760138393205 322.9172653326207 247.39466536203966Z " fill="#ee4e34" transform="matrix(0.9365799405430273,0,0,0.9365799405430273,0,-1.9095386074372271)"/><path d="M579.639015725432 256.40476411212853L579.639015725432 256.40476411212853Q581.5340292007952 256.5942654596648 581.9265677064061 259.26082013571147L581.9265677064061 259.26082013571147Q578.4884718296757 279.9029312066315 575.3481637847883 304.4704273336607L575.3481637847883 304.4704273336607Q570.5970942858421 323.88077964559466 569.5548368743923 334.81771456054764L569.5548368743923 334.81771456054764L569.2570490425496 344.2521745057485Q568.4042929786362 346.14718798111153 566.1167409976622 345.95768663357524L566.1167409976622 345.95768663357524Q562.7869316052384 345.67343461227074 560.4181647610344 326.5473343216414L560.4181647610344 326.5473343216414Q558.0358621062921 313.11981026763965 552.4185007328942 272.2958056841023L552.4185007328942 272.2958056841023L550.1309487519202 260.8715815897702Q551.0784554896018 258.5840296087961 553.3660074705758 258.6787802825643L553.3660074705758 258.6787802825643Q556.4115648416952 258.9765681144071 557.3726073899151 270.57675774573715L557.3726073899151 270.57675774573715Q559.4571222128145 281.05347510238767 564.9797329124442 321.8774796859251L564.9797329124442 321.8774796859251L565.2639849337487 322.1617317072295L565.5482369550532 322.1617317072295Q569.5548368743923 307.40769822047366 575.645951616631 261.4400856323791L575.645951616631 261.4400856323791Q576.1197049854718 256.02576141705583 579.639015725432 256.40476411212853ZM592.200247904982 297.13401802189776L592.200247904982 297.13401802189776Q594.6773012334924 297.13401802189776 595.2458052761012 300.3690767405534L595.2458052761012 300.3690767405534Q595.2458052761012 301.89862333138217 593.1477546426636 303.31988343790454L593.1477546426636 303.31988343790454L592.200247904982 303.31988343790454Q589.5336932289352 303.31988343790454 589.5336932289352 300.0848247192489L589.5336932289352 300.0848247192489Q590.2916986190805 297.13401802189776 592.200247904982 297.13401802189776ZM592.863502621359 309.9795022227522L592.863502621359 309.9795022227522Q596.0985613400147 310.453255591593 594.6773012334924 319.5899277049509L594.6773012334924 319.5899277049509Q593.5267573377362 327.1158383642503 594.2982985384197 344.82067854835736L594.2982985384197 344.82067854835736Q592.863502621359 347.5819838981722 590.5759506403849 347.2029812030996L590.5759506403849 347.2029812030996Q587.9229317748766 346.8104426974887 588.3966851437174 337.7685212578988L588.3966851437174 337.7685212578988Q588.207183796181 321.9722303596932 590.007446597776 311.3195474660447L590.007446597776 311.3195474660447Q590.1969479453123 309.884751548984 592.863502621359 309.9795022227522ZM607.5227854343468 247.36284267253865L607.5227854343468 247.36284267253865Q609.7155867415527 247.4575933463068 609.8103374153209 250.7874027387306L609.8103374153209 250.7874027387306L609.3365840464801 258.2050269137235L607.9965388031876 316.9369088394426L608.1860401507239 317.0316595132107Q617.5122136116182 306.1759394614876 620.6525216565058 306.3654408090239L620.6525216565058 306.3654408090239L621.1262750253466 306.3654408090239Q623.2243256587842 307.98973807362086 623.1295749850161 309.5057488539114L623.1295749850161 309.5057488539114Q623.1295749850161 310.2637542440567 618.3785054860699 314.27035416339584L618.3785054860699 314.27035416339584Q611.136846848075 321.8774796859251 610.1893401103935 324.92303705704444L610.1893401103935 324.92303705704444Q609.9998387628572 329.11913832391997 624.7538722496131 338.3505611110461L624.7538722496131 338.3505611110461Q629.2206897272547 339.29806784872767 629.0311883797185 342.2488745460788L629.0311883797185 342.2488745460788Q628.8416870321821 344.2521745057485 626.0803816823673 344.53642652705287L626.0803816823673 344.53642652705287Q619.9892669401286 344.2521745057485 608.5650428457965 332.63844906388L608.5650428457965 332.63844906388L607.9965388031876 332.63844906388Q607.4280347605786 341.68037050346993 607.9017881294194 344.0626731582121L607.9017881294194 344.0626731582121Q606.9542813917378 351.19604531190055 603.2454693042414 351.10129463813234L603.2454693042414 351.10129463813234Q600.0104105855858 350.53279059552347 600.105161259354 348.055737267013L600.105161259354 348.055737267013L601.8106733871807 345.48393326473445L603.624471999314 258.2050269137235L604.0034746943867 250.69265206496246Q604.4772280632275 247.17334132500233 607.5227854343468 247.36284267253865ZM635.5960564907979 307.21819687293737L635.5960564907979 307.21819687293737Q638.1678604930764 307.21819687293737 639.5079057363689 313.40406228894415L639.5079057363689 313.40406228894415L639.7921577576734 313.40406228894415Q643.4062191714017 309.1267461588387 647.588784627739 309.1267461588387L647.588784627739 309.1267461588387Q654.4379047601228 310.3585049178248 654.4379047601228 313.40406228894415L654.4379047601228 313.40406228894415Q653.5851486962094 316.0706169649908 651.4870980627717 316.0706169649908L651.4870980627717 316.0706169649908L647.8730366490435 314.9336088797729L646.9255299113619 314.9336088797729Q641.308168537964 315.9758662912227 641.308168537964 338.0663090897416L641.308168537964 338.0663090897416L641.308168537964 342.5331265673833Q640.739664495355 345.48393326473445 638.6416138619172 345.48393326473445L638.6416138619172 345.48393326473445Q635.5960564907979 345.48393326473445 635.5960564907979 341.8698718510062L635.5960564907979 341.8698718510062L635.5960564907979 330.8246504517467Q635.5960564907979 318.64242096726935 632.5504991196785 309.5057488539114L632.5504991196785 309.5057488539114Q633.3085045098238 307.21819687293737 635.5960564907979 307.21819687293737ZM668.9076862255743 314.55460618470033L673.7670422088269 313.60709944701875L679.479154255993 314.55460618470033L679.479154255993 314.27035416339584Q681.5636690788924 314.27035416339584 682.7142129746486 317.6001635558197L682.7142129746486 317.6001635558197L682.4299609533441 323.59652762429016L682.4299609533441 327.7790930806274Q682.4299609533441 337.0105158677536 685.0829798188526 341.5856198297017L685.0829798188526 341.5856198297017Q684.3249744287073 343.9543866739057 682.1457089320396 343.9543866739057L682.1457089320396 343.9543866739057Q678.9918650766139 343.9543866739057 677.5706049700915 336.7262638464491L677.5706049700915 336.7262638464491L677.3811036225552 335.21025306615854L676.5283475586417 335.21025306615854Q673.1037874924498 343.2911319575286 666.8096355921365 345.95768663357524L666.8096355921365 345.95768663357524L665.3883754856141 346.33668932864794Q657.1992101099378 344.0626731582121 657.1992101099378 334.34396119170685L657.1992101099378 334.34396119170685L657.1992101099378 333.775457149098Q657.1992101099378 321.6879783383887 668.9076862255743 314.55460618470033L668.9076862255743 314.55460618470033ZM662.9113221571038 332.5436983901119L662.9113221571038 335.58925576123124Q663.5745768734809 340.34032526017734 665.9568795282231 340.34032526017734L665.9568795282231 340.34032526017734L666.2411315495276 340.34032526017734Q669.5709409419513 340.34032526017734 676.7178489061781 320.26671823186643L676.7178489061781 320.26671823186643L676.7178489061781 319.98246621056194L673.9565435563633 319.40042635741463L673.7670422088269 319.40042635741463Q666.1463808757594 319.40042635741463 662.9113221571038 332.5436983901119L662.9113221571038 332.5436983901119ZM716.7838480995703 309.7900008752158L716.7838480995703 309.7900008752158Q723.7277189057223 313.11981026763965 723.4434668844178 331.014151799283L723.4434668844178 331.014151799283Q723.9172202532586 340.52982660771374 726.0152708866964 344.2521745057485L726.0152708866964 344.2521745057485L726.0152708866964 344.63117720082107Q725.8257695391601 346.6209413499523 722.969713515577 347.2029812030996L722.969713515577 347.2029812030996Q717.7313548372518 346.7156920237205 717.6366041634836 321.3089756433161L717.6366041634836 321.3089756433161L716.3100947307295 316.9369088394426L715.1595508349733 316.8421581656744Q711.9244921163175 320.7404716007071 711.4507387474769 326.357832974105L711.4507387474769 326.357832974105Q710.8822347048679 330.5403984304422 711.1664867261724 339.96132256510475L711.1664867261724 339.96132256510475Q709.74522661965 342.5331265673833 707.8366773337485 342.343625219847L707.8366773337485 342.343625219847Q704.6016186150929 341.8698718510062 704.8858706363974 329.97189438783334L704.8858706363974 329.97189438783334Q703.1668226980322 317.8844155771242 701.177058548901 317.6949142295879L701.177058548901 317.6949142295879L700.608554506292 317.6949142295879Q697.752498482709 318.54767029350126 697.1704586295617 323.69127829805836L697.1704586295617 323.69127829805836L698.1315011777816 342.1541238723107L698.0367505040134 343.3858826312967Q697.752498482709 345.48393326473445 694.7069411115896 346.24193865487973L694.7069411115896 346.24193865487973Q689.9423358021052 345.76818528603894 691.3771317191658 313.02505959387156L691.3771317191658 313.02505959387156Q691.6613837404703 311.0352954447402 694.327938416517 310.3585049178248L694.327938416517 310.3585049178248Q696.9809572820254 311.4142981398128 696.8862066082572 312.74080757256706L696.8862066082572 312.74080757256706L697.1704586295617 312.74080757256706L701.4613105702055 312.07755285619Q704.6963692888611 312.45655555126257 707.9314280075167 317.2211608607471L707.9314280075167 317.2211608607471L708.120929355053 317.3159115345152Q712.601282643233 310.7510434234357 716.7838480995703 309.7900008752158ZM768.1793207135263 257.5417721973464L772.077634148559 256.8785174809693Q781.5933089569897 256.8785174809693 785.5863730657907 268.30274157530135L785.5863730657907 268.30274157530135Q786.1684129189379 269.4397496605193 786.1684129189379 271.63255096772514L786.1684129189379 271.63255096772514Q786.1684129189379 274.0148536224674 783.2176062215867 274.2991056437719L783.2176062215867 274.2991056437719Q780.6458022193082 274.2991056437719 779.982547502931 268.0184895539969L779.982547502931 268.0184895539969Q776.7474887842754 262.5906295281353 772.7408888649362 262.5906295281353L772.7408888649362 262.5906295281353L771.414379432182 262.5906295281353Q765.6075167112477 262.5906295281353 764.5652592997981 274.0148536224674L764.5652592997981 274.0148536224674L764.5652592997981 274.2991056437719Q764.5652592997981 287.9973459085397 781.9723116520623 315.6916142699182L781.9723116520623 315.6916142699182Q787.4001716779238 326.2630823003369 787.4001716779238 333.3964544540253L787.4001716779238 333.3964544540253Q787.4001716779238 343.1016306099923 777.5054941744207 348.4347399620857L777.5054941744207 348.4347399620857L774.1756847819969 349.0032440046946Q765.4180153637114 349.0032440046946 757.4183513355714 337.0105158677536L757.4183513355714 337.0105158677536Q755.9023405552808 334.34396119170685 755.9023405552808 331.2984038205875L755.9023405552808 331.2984038205875Q755.9023405552808 326.4525836478732 759.2321499477047 325.8840796052642L759.2321499477047 325.8840796052642L760.084906011618 325.8840796052642Q762.1829566450558 327.3053397117866 762.1829566450558 328.53709847077266L762.1829566450558 328.53709847077266L761.6144526024469 331.2984038205875L761.6144526024469 331.4879051681238Q761.6144526024469 337.6737705841307 771.7933821272546 342.9121292624559L771.7933821272546 342.9121292624559L773.6071807393879 343.2911319575286L774.4599368033013 343.2911319575286Q779.4005076497838 343.2911319575286 781.6880596307578 334.81771456054764L781.6880596307578 334.81771456054764L781.6880596307578 333.68070647532977Q781.6880596307578 323.50177695052207 768.4635727348308 303.69888613297724L768.4635727348308 303.69888613297724Q758.9478979264002 284.9517885374204 758.9478979264002 274.2991056437719L758.9478979264002 274.2991056437719Q758.9478979264002 262.3063775068308 768.1793207135263 257.5417721973464L768.1793207135263 257.5417721973464ZM798.1611410558789 297.13401802189776L798.1611410558789 297.13401802189776Q800.624658573851 297.13401802189776 801.2066984269983 300.3690767405534L801.2066984269983 300.3690767405534Q801.2066984269983 301.89862333138217 799.1086477935604 303.31988343790454L799.1086477935604 303.31988343790454L798.1611410558789 303.31988343790454Q795.4945863798322 303.31988343790454 795.4945863798322 300.0848247192489L795.4945863798322 300.0848247192489Q796.2525917699775 297.13401802189776 798.1611410558789 297.13401802189776ZM798.824395772256 309.9795022227522L798.824395772256 309.9795022227522Q802.0594544909117 310.453255591593 800.624658573851 319.5899277049509L800.624658573851 319.5899277049509Q799.4876504886331 327.1158383642503 800.2456558787784 344.82067854835736L800.2456558787784 344.82067854835736Q798.824395772256 347.5819838981722 796.5368437912819 347.2029812030996L796.5368437912819 347.2029812030996Q793.8702891152352 346.8104426974887 794.344042484076 337.7685212578988L794.344042484076 337.7685212578988Q794.1545411365397 321.9722303596932 795.968339748673 311.3195474660447L795.968339748673 311.3195474660447Q796.1578410962093 309.884751548984 798.824395772256 309.9795022227522ZM824.1363614788922 311.7933008348855L824.1363614788922 311.7933008348855Q833.7467869610911 312.55130622503077 831.9465241594961 334.92600104485416L831.9465241594961 334.92600104485416L831.1749829588124 343.3858826312967Q830.6064789162036 346.8104426974887 827.8451735663888 346.6209413499523L827.8451735663888 346.6209413499523Q825.2869053746484 346.431440002416 825.5711573959529 343.1963812837604L825.5711573959529 343.1963812837604L826.23441211233 333.96495849663427Q827.5609215450842 317.6949142295879 823.378356088747 317.4106622082834L823.378356088747 317.4106622082834Q818.898002800567 317.0316595132107 816.9082386514357 334.34396119170685L816.9082386514357 334.34396119170685L817.2872413465083 344.63117720082107Q817.0977399989721 346.6209413499523 814.0521826278526 346.7156920237205L814.0521826278526 346.7156920237205Q810.5328718878925 346.431440002416 811.385627951806 336.6315131726809L811.385627951806 336.6315131726809L809.0980759708319 314.83885820600483Q809.2875773183681 312.64605689879886 812.6173867107921 312.45655555126257L812.6173867107921 312.45655555126257Q814.6206866704616 312.55130622503077 814.9996893655342 316.7474074919063L814.9996893655342 316.7474074919063L815.3786920606069 316.8421581656744Q819.6695440012505 311.509048813581 824.1363614788922 311.7933008348855ZM857.637492561205 311.3195474660447L857.637492561205 311.3195474660447Q861.2515539749332 311.3195474660447 861.2515539749332 321.4037263170843L861.2515539749332 321.4037263170843Q861.8335938280806 326.926337016714 861.8335938280806 346.6209413499523L861.8335938280806 346.6209413499523Q861.8335938280806 370.89064964513886 857.3532405399004 390.1250364200747L857.3532405399004 390.1250364200747Q853.5496777786358 397.3531592475314 847.0795603413245 397.3531592475314L847.0795603413245 397.3531592475314Q838.4166415968074 397.3531592475314 828.2241762614614 387.0794790489555L828.2241762614614 387.0794790489555L827.6556722188524 385.6446831318948Q828.3324627457678 382.59912576077545 830.7012295899716 382.59912576077545L830.7012295899716 382.59912576077545Q831.5675214644235 382.59912576077545 835.4658348994561 386.49743919580817L835.4658348994561 386.49743919580817Q842.4097057056082 391.6410472003653 846.2132684668728 391.6410472003653L846.2132684668728 391.6410472003653L848.0270670790061 391.6410472003653Q853.9286804737085 391.6410472003653 854.8761872113902 367.9398429477877L854.8761872113902 367.9398429477877Q856.2162324546825 357.19240938037103 856.2162324546825 345.10493056966186L856.2162324546825 345.10493056966186L856.2162324546825 341.775121177238Q851.7358791665025 343.9543866739057 849.2588258379923 343.9543866739057L849.2588258379923 343.9543866739057Q841.4621989679267 343.9543866739057 838.227140249271 334.62821321301135L838.227140249271 334.62821321301135Q836.8870950059785 331.2036531468194 836.8870950059785 327.4000903855548L836.8870950059785 327.4000903855548Q836.8870950059785 316.8421581656744 845.6447644242639 312.55130622503077L845.6447644242639 312.55130622503077L849.6513643436032 312.17230352995807Q851.8306298402707 312.17230352995807 854.0234311474767 313.60709944701875L854.0234311474767 313.60709944701875L854.6866858638538 313.60709944701875Q856.500484475987 311.3195474660447 857.637492561205 311.3195474660447ZM849.8408656911394 318.16866759842867L846.4975204881774 317.78966490335597Q842.6939577269128 321.1194742957798 842.6939577269128 327.96859442816367L842.6939577269128 327.96859442816367Q842.6939577269128 336.7262638464491 848.4060697740788 338.2558104372779L848.4060697740788 338.2558104372779L849.6513643436032 338.2558104372779Q854.8761872113902 338.2558104372779 854.8761872113902 328.63184914454087L854.8761872113902 328.63184914454087Q854.1181818212448 318.16866759842867 849.8408656911394 318.16866759842867L849.8408656911394 318.16866759842867ZM870.5777274358276 253.35920674100916L870.5777274358276 253.35920674100916Q872.6757780692652 253.35920674100916 873.0547807643379 256.689016133433L873.0547807643379 256.689016133433L873.0547807643379 262.0221254855264Q873.0547807643379 281.33772712369216 872.7705287430334 313.40406228894415L872.7705287430334 313.40406228894415Q876.2898394829937 309.884751548984 879.3353968541129 309.884751548984L879.3353968541129 309.884751548984Q887.0508088609486 309.884751548984 889.3383608419226 326.6420849954095L889.3383608419226 326.6420849954095Q889.6226128632271 339.1085665011914 890.759620948445 348.2452386145494L890.759620948445 348.2452386145494Q890.759620948445 349.85600006860807 887.7140635773256 351.19604531190055L887.7140635773256 351.19604531190055Q884.47900485867 349.5717480473036 884.47900485867 347.6767345719404L884.47900485867 347.6767345719404L884.8580075537426 347.3924825506359L884.8580075537426 347.01347985556333Q883.4367474472203 318.26341827219676 881.8124501826234 318.26341827219676L881.8124501826234 318.26341827219676Q880.6754420974054 315.9758662912227 879.7143995491856 315.5968635961501L879.7143995491856 315.5968635961501L878.7668928115039 315.5968635961501Q874.0158233125578 319.79296486302553 874.0158233125578 325.78932893149613L874.0158233125578 325.78932893149613L874.2053246600941 346.24193865487973Q873.0547807643379 349.0032440046946 871.254517962743 349.0032440046946L871.254517962743 349.0032440046946Q868.1142099178554 349.0032440046946 867.2479180434037 340.24557458640925L867.2479180434037 340.24557458640925Q867.9247085703191 334.43871186547506 867.9247085703191 330.25614640913784L867.9247085703191 330.25614640913784L867.9247085703191 329.97189438783334L867.7216714122445 329.68764236652885L867.9247085703191 329.40339034522435L867.9247085703191 327.0210876904822L868.493212612928 283.530528430898Q867.3426687171719 272.8643097267112 867.3426687171719 262.5906295281353L867.3426687171719 262.5906295281353L867.3426687171719 256.8785174809693Q867.5321700647081 253.35920674100916 870.5777274358276 253.35920674100916ZM906.0821584778099 314.55460618470033L910.9415144610625 313.60709944701875L916.6536265082285 314.55460618470033L916.6536265082285 314.27035416339584Q918.738141331128 314.27035416339584 919.8886852268841 317.6001635558197L919.8886852268841 317.6001635558197L919.5908973950415 323.59652762429016L919.5908973950415 327.7790930806274Q919.5908973950415 337.0105158677536 922.2574520710881 341.5856198297017L922.2574520710881 341.5856198297017Q921.4994466809428 343.9543866739057 919.3066453737368 343.9543866739057L919.3066453737368 343.9543866739057Q916.1663373288494 343.9543866739057 914.745077222327 336.7262638464491L914.745077222327 336.7262638464491L914.5555758747907 335.21025306615854L913.7028198108774 335.21025306615854Q910.2647239341471 343.2911319575286 903.984107844372 345.95768663357524L903.984107844372 345.95768663357524L902.5628477378497 346.33668932864794Q894.3736823621733 344.0626731582121 894.3736823621733 334.34396119170685L894.3736823621733 334.34396119170685L894.3736823621733 333.775457149098Q894.3736823621733 321.6879783383887 906.0821584778099 314.55460618470033L906.0821584778099 314.55460618470033ZM900.0857944093393 332.5436983901119L900.0857944093393 335.58925576123124Q900.7490491257164 340.34032526017734 903.1313517804587 340.34032526017734L903.1313517804587 340.34032526017734L903.4156038017632 340.34032526017734Q906.7454131941869 340.34032526017734 913.8923211584137 320.26671823186643L913.8923211584137 320.26671823186643L913.8923211584137 319.98246621056194L911.1310158085988 319.40042635741463L910.9415144610625 319.40042635741463Q903.320853127995 319.40042635741463 900.0857944093393 332.5436983901119L900.0857944093393 332.5436983901119ZM931.2046228369098 261.1558336110746L931.2046228369098 261.1558336110746Q932.6394187539705 261.25058428484283 933.8711775129565 263.5381362658169L933.8711775129565 263.5381362658169Q933.2079227965795 264.5803936772666 933.0184214490431 267.3416990270815L933.0184214490431 267.3416990270815L932.9236707752749 268.5869935966058L933.4921748178839 306.0811887877194Q933.0184214490431 331.582655841892 934.0606788604929 343.4806333050649L934.0606788604929 343.4806333050649L934.2501802080291 344.2521745057485Q933.3974241441157 346.05243730734344 931.4888748582142 345.95768663357524L931.4888748582142 345.95768663357524Q927.2115587281089 345.67343461227074 928.0643147920223 334.15445984417056L928.0643147920223 334.15445984417056Q927.4958107494134 327.8738437543956 927.4958107494134 276.38362046667135L927.4958107494134 276.38362046667135Q926.9273067068044 273.2433124217838 927.2115587281089 268.11324022776506L927.2115587281089 268.11324022776506L927.2115587281089 267.7207017221541Q927.6853120969496 260.96633226353833 931.2046228369098 261.1558336110746Z " fill="#fcedda" transform="matrix(0.9365799405430273,0,0,0.9365799405430273,0,-1.9095386074372271)"/></g></svg>